<svg fill="#000000" xmlns="http://www.w3.org/2000/svg"  viewBox="0 0 24 24" width="48px" height="48px"><path d="M 17.3125 2.0039062 C 17.188449 2.0126836 17.064531 2.0336094 16.941406 2.0683594 L 3.375 5.8847656 C 2.881 6.0237656 2.4764219 6.3441563 2.2324219 6.7851562 C 1.9934219 7.2171563 1.9364063 7.7092969 2.0664062 8.1542969 L 2.1367188 8.421875 L 3.8808594 20.228516 L 3.8828125 20.236328 C 4.048293 21.253931 4.9560888 22 5.9785156 22 C 6.0940712 22 6.2039962 21.990299 6.3085938 21.974609 L 6.3105469 21.974609 L 20.208984 19.798828 L 20.210938 19.798828 C 20.764277 19.710878 21.272227 19.40467 21.603516 18.947266 C 21.925153 18.504541 22.059138 17.940985 21.972656 17.400391 L 21.972656 17.398438 L 20.064453 5.40625 L 19.076172 5.5644531 L 8.3496094 7.2910156 L 19.470703 3.9882812 L 19.277344 3.3398438 C 19.029719 2.4945937 18.180855 1.9424648 17.3125 2.0039062 z M 18.40625 7.6992188 L 19.998047 17.714844 L 19.998047 17.716797 C 20.002247 17.743017 20.001945 17.747264 19.984375 17.771484 L 19.984375 17.773438 C 19.964205 17.801278 19.946058 17.814146 19.898438 17.822266 L 6.0117188 19.996094 C 5.9963163 19.998404 5.9829601 20 5.9785156 20 C 5.8889425 20 5.8659445 19.968425 5.8574219 19.916016 L 4.5996094 11.417969 L 6.1445312 9.671875 L 9.1894531 9.1816406 L 7.6308594 10.949219 L 10.679688 10.460938 L 12.238281 8.6914062 L 15.289062 8.2011719 L 13.730469 9.9707031 L 16.789062 9.4804688 L 16.800781 9.4804688 L 18.363281 7.7070312 L 18.40625 7.6992188 z M 16.900391 10.978516 L 15.912109 11.138672 L 6.7988281 12.605469 L 7.5566406 17.730469 L 17.722656 16.138672 L 16.900391 10.978516 z M 15.240234 13.271484 L 15.431641 14.474609 L 9.2402344 15.443359 L 9.0664062 14.265625 L 15.240234 13.271484 z"/></svg>